<svg width="67" height="67" viewBox="0 0 67 67" fill="none" xmlns="http://www.w3.org/2000/svg">
<mask id="mask0_54630_2456" style="mask-type:alpha" maskUnits="userSpaceOnUse" x="0" y="0" width="67" height="67">
<rect x="0.460205" width="66.0796" height="66.0796" fill="#D9D9D9"/>
</mask>
<g mask="url(#mask0_54630_2456)">
<path d="M33.5 35.7934C36.1616 35.7934 38.4331 34.8527 40.3145 32.9713C42.1959 31.0898 43.1366 28.8183 43.1366 26.1568C43.1366 23.4953 42.1959 21.2238 40.3145 19.3423C38.4331 17.4609 36.1616 16.5202 33.5 16.5202C30.8385 16.5202 28.567 17.4609 26.6856 19.3423C24.8041 21.2238 23.8634 23.4953 23.8634 26.1568C23.8634 28.8183 24.8041 31.0898 26.6856 32.9713C28.567 34.8527 30.8385 35.7934 33.5 35.7934ZM33.5 54.7913C36.2075 53.9194 38.6051 52.5542 40.6931 50.6957C42.781 48.8372 44.6051 46.7378 46.1653 44.3975C44.1921 43.388 42.1386 42.6193 40.0047 42.0916C37.8709 41.5639 35.7027 41.3 33.5 41.3C31.2974 41.3 29.1292 41.5639 26.9953 42.0916C24.8615 42.6193 22.808 43.388 20.8348 44.3975C22.395 46.7378 24.2191 48.8372 26.307 50.6957C28.3949 52.5542 30.7926 53.9194 33.5 54.7913ZM33.5 60.2979C33.1788 60.2979 32.8805 60.275 32.6052 60.2291C32.3299 60.1832 32.0545 60.1144 31.7792 60.0226C25.5843 57.9576 20.6512 54.1374 16.9801 48.5619C13.3091 42.9864 11.4735 36.9865 11.4735 30.5621V17.5527C11.4735 16.4055 11.8062 15.373 12.4716 14.4552C13.137 13.5374 13.9974 12.872 15.0528 12.459L31.5727 6.26409C32.2152 6.03464 32.8576 5.91992 33.5 5.91992C34.1425 5.91992 34.7849 6.03464 35.4274 6.26409L51.9473 12.459C53.0027 12.872 53.8631 13.5374 54.5285 14.4552C55.1939 15.373 55.5266 16.4055 55.5266 17.5527V30.5621C55.5266 36.9865 53.691 42.9864 50.0199 48.5619C46.3489 54.1374 41.4158 57.9576 35.2209 60.0226C34.9455 60.1144 34.6702 60.1832 34.3949 60.2291C34.1195 60.275 33.8213 60.2979 33.5 60.2979Z" fill="#D0BCFF"/>
</g>
</svg>
