<svg width="40" height="40" viewBox="0 0 40 40" fill="none" xmlns="http://www.w3.org/2000/svg">
<mask id="mask0_54640_2507" style="mask-type:alpha" maskUnits="userSpaceOnUse" x="0" y="0" width="40" height="40">
<rect width="40" height="40" fill="#D9D9D9"/>
</mask>
<g mask="url(#mask0_54640_2507)">
<path d="M6.66659 33.3327C5.74992 33.3327 4.9652 33.0063 4.31242 32.3535C3.65964 31.7007 3.33325 30.916 3.33325 29.9993V9.99935C3.33325 9.08268 3.65964 8.29796 4.31242 7.64518C4.9652 6.9924 5.74992 6.66602 6.66659 6.66602H15.2916C15.736 6.66602 16.1596 6.74935 16.5624 6.91602C16.9652 7.08268 17.3194 7.31879 17.6249 7.62435L19.9999 9.99935H33.3333C34.2499 9.99935 35.0346 10.3257 35.6874 10.9785C36.3402 11.6313 36.6666 12.416 36.6666 13.3327V18.8327C36.1388 18.6105 35.5902 18.4646 35.0208 18.3952C34.4513 18.3257 33.8888 18.3327 33.3333 18.416V13.3327H18.6249L15.2916 9.99935H6.66659V29.9993H20.1666L19.9999 30.166V33.3327H6.66659ZM23.3333 34.9993V32.2493C23.3333 32.0271 23.3749 31.8118 23.4583 31.6035C23.5416 31.3952 23.6666 31.2077 23.8333 31.041L32.5416 22.3743C32.7916 22.1243 33.0694 21.9438 33.3749 21.8327C33.6805 21.7216 33.986 21.666 34.2916 21.666C34.6249 21.666 34.9444 21.7285 35.2499 21.8535C35.5555 21.9785 35.8333 22.166 36.0833 22.416L37.6249 23.9577C37.8471 24.2077 38.0208 24.4855 38.1458 24.791C38.2708 25.0966 38.3333 25.4021 38.3333 25.7077C38.3333 26.0132 38.2777 26.3257 38.1666 26.6452C38.0555 26.9646 37.8749 27.2493 37.6249 27.4993L28.9583 36.166C28.7916 36.3327 28.6041 36.4577 28.3958 36.541C28.1874 36.6243 27.9721 36.666 27.7499 36.666H24.9999C24.5277 36.666 24.1319 36.5063 23.8124 36.1868C23.493 35.8674 23.3333 35.4716 23.3333 34.9993ZM25.8333 34.166H27.4166L32.4583 29.0827L31.7083 28.291L30.9166 27.541L25.8333 32.5827V34.166ZM31.7083 28.291L30.9166 27.541L32.4583 29.0827L31.7083 28.291Z" fill="#4F378B"/>
</g>
</svg>
