<svg width="55" height="156" viewBox="0 0 55 156" fill="none" xmlns="http://www.w3.org/2000/svg">
<mask id="mask0_54495_27172" style="mask-type:alpha" maskUnits="userSpaceOnUse" x="0" y="0" width="55" height="55">
<rect width="55" height="55" fill="#D9D9D9"/>
</mask>
<g mask="url(#mask0_54495_27172)">
<path d="M18.3333 44.4231V22.022C18.3333 20.9966 18.6962 20.1255 19.4219 19.4086C20.1476 18.6918 21.0231 18.3333 22.0485 18.3333H44.4231C45.4485 18.3333 46.3218 18.694 47.0431 19.4152C47.7644 20.1365 48.125 21.0099 48.125 22.0352V37.9888L37.9888 48.125H22.0352C21.0099 48.125 20.1365 47.7644 19.4152 47.0431C18.694 46.3218 18.3333 45.4485 18.3333 44.4231ZM6.93229 15.1162C6.7325 14.0908 6.92933 13.1675 7.5228 12.3464C8.1163 11.5252 8.92574 11.0147 9.95111 10.8149L31.9952 6.93229C33.0206 6.7325 33.9439 6.92933 34.765 7.5228C35.5862 8.1163 36.0967 8.92574 36.2965 9.95111L36.7813 12.8686H22.0352C19.5144 12.8686 17.3564 13.7661 15.5613 15.5613C13.7661 17.3564 12.8686 19.5144 12.8686 22.0352V39.8662C12.3456 39.6106 11.9012 39.2477 11.5354 38.7776C11.1697 38.3076 10.9295 37.7685 10.8149 37.1603L6.93229 15.1162ZM45.8333 36.6667H38.5176C37.9859 36.6667 37.5444 36.8422 37.1933 37.1933C36.8422 37.5444 36.6667 37.9859 36.6667 38.5177V45.8333L45.8333 36.6667Z" fill="#D0BCFF"/>
</g>
<rect x="0.5" y="27.5" width="54" height="128" rx="27" fill="#2B2930"/>
<path d="M22.2461 45.418H32.7539V72H22.2461V45.418ZM36.6016 77.3984H38.3594C43.151 77.3984 46.0156 79.026 46.9531 82.2812C47.2526 83.3359 47.4023 84.5534 47.4023 85.9336V104H36.6016V77.3984ZM22.1094 77.3984H32.9688V104H22.1094V77.3984ZM7.57812 77.3984H18.4375V104H7.57812V77.3984ZM30.1562 111.418H39.9219V120.285H36.0156C34.0495 120.285 32.5326 119.784 31.4648 118.781C30.5924 117.961 30.1562 116.945 30.1562 115.734V111.418ZM25.2344 138C23.125 138 21.25 137.219 19.6094 135.656C18.1641 134.276 17.0312 132.44 16.2109 130.148C15.4557 128.039 15.0781 125.949 15.0781 123.879C15.0781 120.767 15.8464 118 17.3828 115.578C18.4766 113.859 19.9154 112.648 21.6992 111.945C22.6107 111.594 23.6263 111.418 24.7461 111.418H26.25V138H25.2344ZM29.1406 125.578H39.9219V130.344C39.9219 133.13 39.1992 135.096 37.7539 136.242C36.2956 137.414 33.8867 138 30.5273 138H29.1406V125.578Z" fill="#D0BCFF"/>
<rect x="0.5" y="27.5" width="54" height="128" rx="27" stroke="#D0BCFF"/>
</svg>
