<svg width="67" height="67" viewBox="0 0 67 67" fill="none" xmlns="http://www.w3.org/2000/svg">
<mask id="mask0_54503_27472" style="mask-type:alpha" maskUnits="userSpaceOnUse" x="0" y="0" width="67" height="67">
<rect width="66.0796" height="66.0796" fill="#D9D9D9"/>
</mask>
<g mask="url(#mask0_54503_27472)">
<path d="M17.8967 44.0531C20.0534 44.0531 22.1528 44.294 24.1949 44.7758C26.2369 45.2576 28.2675 45.9804 30.2866 46.9441V19.8239C28.4051 18.7226 26.409 17.8966 24.2981 17.3459C22.1872 16.7952 20.0534 16.5199 17.8967 16.5199C16.2447 16.5199 14.6041 16.6805 12.9751 17.0017C11.3461 17.323 9.77437 17.8048 8.26005 18.4472V45.7051C9.86615 45.1544 11.4608 44.7414 13.0439 44.4661C14.6271 44.1907 16.2447 44.0531 17.8967 44.0531ZM35.7932 46.9441C37.8123 45.9804 39.8429 45.2576 41.8849 44.7758C43.927 44.294 46.0264 44.0531 48.1831 44.0531C49.8351 44.0531 51.4527 44.1907 53.0359 44.4661C54.619 44.7414 56.2136 45.1544 57.8197 45.7051V18.4472C56.3054 17.8048 54.7337 17.323 53.1047 17.0017C51.4756 16.6805 49.8351 16.5199 48.1831 16.5199C46.0264 16.5199 43.8926 16.7952 41.7817 17.3459C39.6708 17.8966 37.6746 18.7226 35.7932 19.8239V46.9441ZM33.0399 53.6208C32.3975 53.6208 31.7894 53.5405 31.2158 53.3799C30.6422 53.2193 30.103 53.0014 29.5983 52.726C27.8086 51.6706 25.9272 50.879 23.954 50.3513C21.9807 49.8236 19.9616 49.5597 17.8967 49.5597C15.9693 49.5597 14.0764 49.8121 12.2179 50.3169C10.3595 50.8216 8.58127 51.5329 6.88339 52.4507C5.91973 52.9555 4.99049 52.9325 4.09566 52.3819C3.20083 51.8312 2.75342 51.0281 2.75342 49.9727V16.7952C2.75342 16.2905 2.87961 15.8086 3.132 15.3497C3.38439 14.8909 3.76297 14.5467 4.26774 14.3173C6.37862 13.2159 8.58127 12.3899 10.8757 11.8393C13.1701 11.2886 15.5104 11.0133 17.8967 11.0133C20.5582 11.0133 23.1624 11.3574 25.7092 12.0458C28.256 12.7341 30.6996 13.7666 33.0399 15.1432C35.3802 13.7666 37.8238 12.7341 40.3706 12.0458C42.9174 11.3574 45.5216 11.0133 48.1831 11.0133C50.5693 11.0133 52.9097 11.2886 55.2041 11.8393C57.4985 12.3899 59.7012 13.2159 61.8121 14.3173C62.3168 14.5467 62.6954 14.8909 62.9478 15.3497C63.2002 15.8086 63.3264 16.2905 63.3264 16.7952V49.9727C63.3264 51.0281 62.879 51.8312 61.9841 52.3819C61.0893 52.9325 60.1601 52.9555 59.1964 52.4507C57.4985 51.5329 55.7203 50.8216 53.8619 50.3169C52.0034 49.8121 50.1105 49.5597 48.1831 49.5597C46.1181 49.5597 44.099 49.8236 42.1258 50.3513C40.1526 50.879 38.2712 51.6706 36.4815 52.726C35.9768 53.0014 35.4376 53.2193 34.864 53.3799C34.2904 53.5405 33.6823 53.6208 33.0399 53.6208ZM38.5465 24.1604C38.5465 23.7474 38.6957 23.3229 38.9939 22.887C39.2922 22.451 39.6249 22.1642 39.992 22.0265C41.3228 21.5677 42.6536 21.2235 43.9843 20.994C45.3151 20.7646 46.7147 20.6499 48.1831 20.6499C49.1009 20.6499 50.0072 20.7072 50.902 20.822C51.7969 20.9367 52.6802 21.0858 53.5521 21.2694C53.9651 21.3612 54.3207 21.5906 54.619 21.9577C54.9173 22.3248 55.0664 22.7378 55.0664 23.1967C55.0664 23.9768 54.814 24.5504 54.3093 24.9175C53.8045 25.2846 53.162 25.3764 52.3819 25.1929C51.7395 25.0552 51.0626 24.9519 50.3514 24.8831C49.6401 24.8143 48.9174 24.7799 48.1831 24.7799C46.99 24.7799 45.8199 24.8946 44.6727 25.124C43.5254 25.3535 42.4241 25.6517 41.3687 26.0189C40.5427 26.3401 39.8658 26.3171 39.3381 25.95C38.8104 25.5829 38.5465 24.9864 38.5465 24.1604ZM38.5465 39.3036C38.5465 38.8906 38.6957 38.4661 38.9939 38.0302C39.2922 37.5942 39.6249 37.3074 39.992 37.1698C41.3228 36.7109 42.6536 36.3667 43.9843 36.1373C45.3151 35.9078 46.7147 35.7931 48.1831 35.7931C49.1009 35.7931 50.0072 35.8505 50.902 35.9652C51.7969 36.0799 52.6802 36.2291 53.5521 36.4126C53.9651 36.5044 54.3207 36.7338 54.619 37.1009C54.9173 37.4681 55.0664 37.8811 55.0664 38.3399C55.0664 39.12 54.814 39.6937 54.3093 40.0608C53.8045 40.4279 53.162 40.5197 52.3819 40.3361C51.7395 40.1984 51.0626 40.0952 50.3514 40.0263C49.6401 39.9575 48.9174 39.9231 48.1831 39.9231C46.99 39.9231 45.8199 40.0263 44.6727 40.2328C43.5254 40.4393 42.4241 40.7261 41.3687 41.0933C40.5427 41.4145 39.8658 41.403 39.3381 41.0588C38.8104 40.7147 38.5465 40.1296 38.5465 39.3036ZM38.5465 31.732C38.5465 31.319 38.6957 30.8945 38.9939 30.4586C39.2922 30.0226 39.6249 29.7358 39.992 29.5982C41.3228 29.1393 42.6536 28.7951 43.9843 28.5657C45.3151 28.3362 46.7147 28.2215 48.1831 28.2215C49.1009 28.2215 50.0072 28.2789 50.902 28.3936C51.7969 28.5083 52.6802 28.6574 53.5521 28.841C53.9651 28.9328 54.3207 29.1622 54.619 29.5293C54.9173 29.8964 55.0664 30.3094 55.0664 30.7683C55.0664 31.5484 54.814 32.122 54.3093 32.4891C53.8045 32.8563 53.162 32.948 52.3819 32.7645C51.7395 32.6268 51.0626 32.5236 50.3514 32.4547C49.6401 32.3859 48.9174 32.3515 48.1831 32.3515C46.99 32.3515 45.8199 32.4662 44.6727 32.6956C43.5254 32.9251 42.4241 33.2234 41.3687 33.5905C40.5427 33.9117 39.8658 33.8887 39.3381 33.5216C38.8104 33.1545 38.5465 32.558 38.5465 31.732Z" fill="#D0BCFF"/>
</g>
</svg>
