<svg width="40" height="40" viewBox="0 0 40 40" fill="none" xmlns="http://www.w3.org/2000/svg">
<mask id="mask0_54644_2602" style="mask-type:alpha" maskUnits="userSpaceOnUse" x="0" y="0" width="40" height="40">
<rect width="40" height="40" fill="#D9D9D9"/>
</mask>
<g mask="url(#mask0_54644_2602)">
<path d="M20 26.667C22.0833 26.667 23.8542 25.9378 25.3125 24.4795C26.7708 23.0212 27.5 21.2503 27.5 19.167C27.5 17.0837 26.7708 15.3128 25.3125 13.8545C23.8542 12.3962 22.0833 11.667 20 11.667C17.9167 11.667 16.1458 12.3962 14.6875 13.8545C13.2292 15.3128 12.5 17.0837 12.5 19.167C12.5 21.2503 13.2292 23.0212 14.6875 24.4795C16.1458 25.9378 17.9167 26.667 20 26.667ZM20 23.667C18.75 23.667 17.6875 23.2295 16.8125 22.3545C15.9375 21.4795 15.5 20.417 15.5 19.167C15.5 17.917 15.9375 16.8545 16.8125 15.9795C17.6875 15.1045 18.75 14.667 20 14.667C21.25 14.667 22.3125 15.1045 23.1875 15.9795C24.0625 16.8545 24.5 17.917 24.5 19.167C24.5 20.417 24.0625 21.4795 23.1875 22.3545C22.3125 23.2295 21.25 23.667 20 23.667ZM20 31.667C16.2778 31.667 12.8819 30.667 9.8125 28.667C6.74306 26.667 4.31944 24.0281 2.54167 20.7503C2.40278 20.5003 2.29861 20.2434 2.22917 19.9795C2.15972 19.7156 2.125 19.4448 2.125 19.167C2.125 18.8892 2.15972 18.6184 2.22917 18.3545C2.29861 18.0906 2.40278 17.8337 2.54167 17.5837C4.31944 14.3059 6.74306 11.667 9.8125 9.66699C12.8819 7.66699 16.2778 6.66699 20 6.66699C23.7222 6.66699 27.1181 7.66699 30.1875 9.66699C33.2569 11.667 35.6806 14.3059 37.4583 17.5837C37.5972 17.8337 37.7014 18.0906 37.7708 18.3545C37.8403 18.6184 37.875 18.8892 37.875 19.167C37.875 19.4448 37.8403 19.7156 37.7708 19.9795C37.7014 20.2434 37.5972 20.5003 37.4583 20.7503C35.6806 24.0281 33.2569 26.667 30.1875 28.667C27.1181 30.667 23.7222 31.667 20 31.667ZM20 28.3337C23.1389 28.3337 26.0208 27.5073 28.6458 25.8545C31.2708 24.2017 33.2778 21.9725 34.6667 19.167C33.2778 16.3614 31.2708 14.1323 28.6458 12.4795C26.0208 10.8267 23.1389 10.0003 20 10.0003C16.8611 10.0003 13.9792 10.8267 11.3542 12.4795C8.72917 14.1323 6.72222 16.3614 5.33333 19.167C6.72222 21.9725 8.72917 24.2017 11.3542 25.8545C13.9792 27.5073 16.8611 28.3337 20 28.3337Z" fill="#4F378B"/>
</g>
</svg>
